{"title":"The Frontier Boys 2012 DvDRip XviD Ac3 Feel-Free","uid":7100135,"size":1409564732,"categoryP":"video","categoryS":"movies","magnet":"?xt=urn:btih:0e8fa17aaba917ccbb1a05a157b4da06e943a565&amp;dn=The+Frontier+Boys+2012+DvDRip+XviD+Ac3+Feel-Free&amp;tr=udp%3A%2F%2Ftracker.openbittorrent.com%3A80&amp;tr=udp%3A%2F%2Fopen.demonii.com%3A1337&amp;tr=udp%3A%2F%2Ftracker.coppersurfer.tk%3A6969&amp;tr=udp%3A%2F%2Fexodus.desync.com%3A6969","seeders":2,"leechers":2,"uploader":"HeroMaster","files":-1,"time":1331665664,"description":"The Frontier Boys 2012 DvDRip XviD Ac3 Feel-Free\n\nGenre:Action | Adventure | Family\nLanguage:English\nIMDb:http://www.imdb.com/title/tt1613056/\nSource:ISO HK INC Thanks!\nEncoder:Tony\n\nFormat : AVI\nFormat/Info : Audio Video Interleave\nFile size : 1.31 GiB\nDuration : 1h 52mn\nOverall bit rate : 1 676 Kbps\n\nVideo\nID : 0\nFormat : MPEG-4 Visual\nFormat profile : Advanced Simple@L5\nFormat settings, BVOP : 1\nFormat settings, QPel : No\nFormat settings, GMC : No warppoints\nFormat settings, Matrix : Default (H.263)\nCodec ID : XVID\nCodec ID/Hint : XviD\nDuration : 1h 52mn\nBit rate : 1 219 Kbps\nWidth : 640 pixels\nHeight : 272 pixels\nDisplay aspect ratio : 2.35:1\nFrame rate : 23.976 fps\nColor space : YUV\nChroma subsampling : 4:2:0\nBit depth : 8 bits\nScan type : Progressive\nCompression mode : Lossy\nBits/(Pixel*Frame) : 0.292\nStream size : 977 MiB (73%)\nWriting library : XviD 1.2.1 (UTC 2008-12-04)\n\nAudio\nID : 1\nFormat : AC-3\nFormat/Info : Audio Coding 3\nMode extension : CM (complete main)\nCodec ID : 2000\nDuration : 1h 52mn\nBit rate mode : Constant\nBit rate : 448 Kbps\nChannel(s) : 6 channels\nChannel positions : Front: L C R, Side: L R, LFE\nSampling rate : 48.0 KHz\nBit depth : 16 bits\nCompression mode : Lossy\nStream size : 359 MiB (27%)\nAlignment : Aligned on interleaves\nInterleave, duration : 42 ms (1.00 video frame)\nInterleave, preload duration : 512 ms\n\n\nPlot:\nThe story of four high school boys whose undefeated basketball season and friendship are threatened after a drive-by shooting leaves one of them in a coma and one of them with a secret..\n\n\nPoster:\n\n &lt;a href=&quot;\nhttp://i.imgur.com/ohfvA.jpg&quot; rel=&quot;nofollow&quot; target=&quot;_NEW&quot;&gt;\nhttp://i.imgur.com/ohfvA.jpg&lt;/a&gt;\n\n\nScreens:\n\n &lt;a href=&quot;\nhttp://i.imgur.com/Cjlvi.png&quot; rel=&quot;nofollow&quot; target=&quot;_NEW&quot;&gt;\nhttp://i.imgur.com/Cjlvi.png&lt;/a&gt;\n\n &lt;a href=&quot;\nhttp://i.imgur.com/vHUu7.png&quot; rel=&quot;nofollow&quot; target=&quot;_NEW&quot;&gt;\nhttp://i.imgur.com/vHUu7.png&lt;/a&gt;\n\n &lt;a href=&quot;\nhttp://i.imgur.com/b84y8.png&quot; rel=&quot;nofollow&quot; target=&quot;_NEW&quot;&gt;\nhttp://i.imgur.com/b84y8.png&lt;/a&gt;\n\n\nENJOY!","torrent":{"xt":"urn:btih:0e8fa17aaba917ccbb1a05a157b4da06e943a565","amp;dn":"The+Frontier+Boys+2012+DvDRip+XviD+Ac3+Feel-Free","amp;tr":["udp%3A%2F%2Ftracker.openbittorrent.com%3A80","udp%3A%2F%2Fopen.demonii.com%3A1337","udp%3A%2F%2Ftracker.coppersurfer.tk%3A6969","udp%3A%2F%2Fexodus.desync.com%3A6969"],"infoHash":"0e8fa17aaba917ccbb1a05a157b4da06e943a565","infoHashBuffer":{"type":"Buffer","data":[14,143,161,122,171,169,23,204,187,26,5,161,87,180,218,6,233,67,165,101]},"announce":[],"urlList":[]}}